<svg width="540" height="406" viewBox="0 0 540 406" fill="none" xmlns="http://www.w3.org/2000/svg">
<g clip-path="url(#clip0_12131_58904)">
<path opacity="0.03" d="M254.967 36.5768H405.831C405.831 36.5768 396.903 19.0477 376.294 27.8428C376.294 27.8428 365.103 7.7484 342.171 19.5974C342.171 19.5974 333.365 -2.81795 308.659 0.296983C284.932 3.22869 280.529 23.9338 280.529 23.9338C280.529 23.9338 257.413 22.8955 254.967 36.5768Z" fill="white"/>
<path opacity="0.03" d="M126.281 36.9923H221.313C221.313 36.9923 213.485 22.0894 193.121 27.5864C193.121 27.5864 187.984 12.0117 169.577 12.0117C151.17 12.0117 144.688 27.5864 144.688 27.5864C144.688 27.5864 127.871 26.8535 126.281 36.9923Z" fill="white"/>
<g opacity="0.03">
<path d="M537.876 317.348L535.491 316.005C533.962 315.149 533.045 313.561 533.045 311.79C533.045 311.607 533.045 311.424 533.045 311.179C533.045 310.996 533.045 310.813 533.045 310.569C533.045 308.797 533.962 307.209 535.491 306.354L537.876 305.011C539.771 303.972 540.689 301.713 540.138 299.636V299.575C539.588 297.498 537.631 296.032 535.491 296.093L532.739 296.154C530.965 296.216 529.375 295.238 528.519 293.711C528.336 293.406 528.152 293.101 527.969 292.795C527.052 291.268 527.052 289.375 527.908 287.909L529.314 285.588C530.415 283.695 530.109 281.313 528.58 279.786L528.519 279.725C526.991 278.198 524.606 277.892 522.71 278.992L520.386 280.397C518.857 281.313 516.961 281.252 515.494 280.336C515.188 280.152 514.882 279.969 514.576 279.786C513.048 278.931 512.069 277.343 512.13 275.571L512.191 272.823C512.253 270.624 510.785 268.731 508.706 268.181H508.645C506.565 267.631 504.303 268.548 503.263 270.441L501.918 272.823C501.062 274.35 499.472 275.266 497.698 275.266C497.515 275.266 497.331 275.266 497.087 275.266C496.842 275.266 496.72 275.266 496.475 275.266C494.702 275.266 493.112 274.35 492.256 272.823L490.91 270.441C489.871 268.548 487.608 267.631 485.529 268.181H485.468C483.389 268.731 481.921 270.685 481.982 272.823L482.043 275.571C482.104 277.343 481.126 278.931 479.597 279.786C479.291 279.969 478.986 280.152 478.68 280.336C477.151 281.252 475.255 281.252 473.788 280.397L471.464 278.992C469.568 277.892 467.183 278.198 465.654 279.725L465.593 279.786C464.064 281.313 463.758 283.695 464.859 285.588L466.266 287.909C467.183 289.436 467.122 291.329 466.205 292.795C466.021 293.101 465.838 293.406 465.654 293.711C464.798 295.238 463.208 296.216 461.435 296.154L458.683 296.093C456.481 296.032 454.586 297.498 454.035 299.575V299.636C453.485 301.713 454.402 303.972 456.298 305.011L458.683 306.354C460.212 307.209 461.129 308.797 461.129 310.569C461.129 310.752 461.129 310.935 461.129 311.179C461.129 311.363 461.129 311.546 461.129 311.79C461.129 313.561 460.212 315.149 458.683 316.005L456.298 317.348C454.402 318.387 453.485 320.646 454.035 322.723V322.784C454.586 324.861 456.542 326.327 458.683 326.266L461.435 326.204C463.208 326.143 464.798 327.121 465.654 328.648C465.838 328.953 466.021 329.258 466.205 329.564C467.122 331.091 467.122 332.984 466.266 334.45L464.859 336.771C463.758 338.664 464.064 341.046 465.593 342.573L465.654 342.634C467.183 344.161 469.568 344.466 471.464 343.367L473.788 341.962C475.316 341.046 477.212 341.107 478.68 342.023C478.986 342.207 479.291 342.39 479.597 342.573C481.126 343.428 482.104 345.016 482.043 346.787L481.982 349.536C481.921 351.735 483.389 353.628 485.468 354.178H485.529C487.608 354.727 489.871 353.811 490.91 351.918L492.256 349.536C493.112 348.009 494.702 347.093 496.475 347.093C496.659 347.093 496.842 347.093 497.087 347.093C497.331 347.093 497.454 347.093 497.698 347.093C499.472 347.093 501.062 348.009 501.918 349.536L503.263 351.918C504.303 353.811 506.565 354.727 508.645 354.178H508.706C510.785 353.628 512.253 351.674 512.191 349.536L512.13 346.787C512.069 345.016 513.048 343.428 514.576 342.573C514.882 342.39 515.188 342.207 515.494 342.023C517.023 341.107 518.918 341.107 520.386 341.962L522.71 343.367C524.606 344.466 526.991 344.161 528.519 342.634L528.58 342.573C530.109 341.046 530.415 338.664 529.314 336.771L527.908 334.45C526.991 332.923 527.052 331.03 527.969 329.564C528.152 329.258 528.336 328.953 528.519 328.648C529.375 327.121 530.965 326.143 532.739 326.204L535.491 326.266C537.692 326.327 539.588 324.861 540.138 322.784V322.723C540.75 320.585 539.771 318.387 537.876 317.348ZM497.087 337.931C482.288 337.931 470.363 325.96 470.363 311.241C470.363 296.46 482.349 284.55 497.087 284.55C511.886 284.55 523.811 296.521 523.811 311.241C523.811 325.96 511.886 337.931 497.087 337.931Z" fill="white"/>
<path d="M497.088 323.456C503.742 323.456 509.135 318.069 509.135 311.424C509.135 304.779 503.742 299.392 497.088 299.392C490.435 299.392 485.041 304.779 485.041 311.424C485.041 318.069 490.435 323.456 497.088 323.456Z" fill="white"/>
</g>
<path d="M315.627 405.116L316.422 402.246C320.764 386.549 312.081 375.494 311.714 375.005L310.491 375.982C310.552 376.105 318.074 385.816 315.444 399.436C313.304 395.161 306.883 386.61 290.616 385.755L290.555 387.343C311.102 388.381 314.894 402.062 314.894 402.184L315.627 405.116Z" fill="#00FFA3"/>
<path d="M282.484 386.793C282.484 388.869 284.197 390.58 286.276 390.58C288.355 390.58 290.067 388.869 290.067 386.793C290.067 384.716 288.355 383.006 286.276 383.006C284.197 383.006 282.484 384.716 282.484 386.793Z" fill="#00FFA3"/>
<path d="M325.658 386.793C325.658 388.87 327.371 390.58 329.45 390.58C331.529 390.58 333.241 388.87 333.241 386.793C333.241 384.716 331.529 383.006 329.45 383.006C327.371 383.006 325.658 384.716 325.658 386.793Z" fill="#00FFA3"/>
<path d="M305.967 372.501C305.967 374.578 307.679 376.288 309.758 376.288C311.837 376.288 313.55 374.578 313.55 372.501C313.55 370.424 311.837 368.714 309.758 368.714C307.679 368.714 305.967 370.363 305.967 372.501Z" fill="#00FFA3"/>
<path d="M316.424 402.184C318.259 395.099 326.881 389.114 326.942 389.053L326.025 387.709C325.658 387.953 316.852 394.122 314.834 401.757L316.424 402.184Z" fill="#00FFA3"/>
<path d="M213.261 362.545C220.477 351.918 228.549 344.65 241.208 336.832C253.867 329.014 269.155 330.724 275.698 328.464C282.242 326.204 281.508 334.389 278.695 341.84C275.882 349.292 277.777 385.205 241.147 392.412C204.516 399.619 207.941 370.424 213.261 362.545Z" fill="url(#paint0_linear_12131_58904)"/>
<path d="M234.787 372.684C234.726 372.684 234.726 372.684 234.665 372.684C234.359 372.623 234.176 372.318 234.298 372.012C237.356 360.041 232.647 347.337 232.586 347.215C232.463 346.91 232.647 346.604 232.892 346.543C233.197 346.421 233.503 346.604 233.564 346.849C233.625 346.971 238.395 360.041 235.277 372.318C235.277 372.562 235.032 372.684 234.787 372.684Z" fill="#00FFA3"/>
<path d="M234.542 374.089C234.358 374.089 234.114 373.967 234.053 373.723C233.93 373.478 234.053 373.112 234.358 373.051C245.855 368.592 263.651 372.623 264.385 372.745C264.69 372.806 264.874 373.112 264.813 373.356C264.751 373.661 264.446 373.845 264.201 373.784C264.018 373.723 245.916 369.691 234.787 374.028C234.664 374.089 234.603 374.089 234.542 374.089Z" fill="#00FFA3"/>
<path d="M230.077 383.861C230.016 383.861 229.955 383.861 229.894 383.8C229.588 383.678 229.466 383.373 229.588 383.128C240.901 352.284 273.801 333.412 274.168 333.228C274.413 333.106 274.78 333.167 274.902 333.412C275.024 333.656 274.963 334.022 274.719 334.144C274.413 334.328 241.757 353.078 230.627 383.495C230.505 383.739 230.261 383.861 230.077 383.861Z" fill="#00FFA3"/>
<path d="M247.628 356.132C247.444 356.132 247.261 356.071 247.2 355.888C247.016 355.644 247.138 355.338 247.383 355.155C255.272 350.208 271.6 353.506 272.272 353.628C272.578 353.689 272.762 353.995 272.7 354.239C272.639 354.544 272.333 354.727 272.089 354.666C271.905 354.605 255.516 351.307 247.995 356.01C247.811 356.071 247.75 356.132 247.628 356.132Z" fill="#00FFA3"/>
<path d="M253.929 349.78C253.867 349.78 253.745 349.78 253.684 349.719C253.439 349.597 253.317 349.231 253.5 348.986C256.069 344.345 255.947 335.611 255.947 335.488C255.947 335.183 256.191 334.939 256.497 334.939C256.803 334.939 257.047 335.183 257.047 335.488C257.047 335.855 257.231 344.65 254.479 349.475C254.295 349.658 254.112 349.78 253.929 349.78Z" fill="#00FFA3"/>
<g opacity="0.03">
<path d="M352.216 299.086L350.81 298.292C349.892 297.803 349.342 296.887 349.403 295.849C349.403 295.727 349.403 295.605 349.403 295.482C349.403 295.36 349.403 295.238 349.403 295.116C349.403 294.078 349.954 293.162 350.81 292.673L352.216 291.879C353.317 291.268 353.867 289.986 353.562 288.764C353.562 288.764 353.562 288.764 353.562 288.703C353.256 287.481 352.094 286.626 350.871 286.626H349.281C348.241 286.626 347.324 286.077 346.835 285.16C346.712 284.977 346.651 284.794 346.529 284.611C345.979 283.756 345.979 282.656 346.529 281.74L347.324 280.396C347.997 279.297 347.813 277.892 346.896 277.037C346.896 277.037 346.896 277.037 346.835 276.976C345.917 276.06 344.572 275.938 343.471 276.549L342.126 277.343C341.209 277.892 340.108 277.831 339.252 277.343C339.068 277.22 338.885 277.159 338.701 277.037C337.784 276.549 337.234 275.571 337.234 274.594V273.006C337.234 271.723 336.439 270.624 335.155 270.319C335.155 270.319 335.155 270.319 335.093 270.319C333.87 270.013 332.586 270.563 331.975 271.662L331.18 273.067C330.69 273.983 329.773 274.533 328.733 274.472C328.611 274.472 328.489 274.472 328.367 274.472C328.244 274.472 328.122 274.472 328 274.472C326.96 274.472 326.043 273.922 325.554 273.067L324.759 271.662C324.147 270.563 322.863 270.013 321.64 270.319C321.64 270.319 321.64 270.319 321.579 270.319C320.356 270.624 319.499 271.785 319.499 273.006V274.594C319.499 275.632 318.949 276.549 318.032 277.037C317.848 277.159 317.665 277.22 317.481 277.343C316.625 277.892 315.524 277.892 314.607 277.343L313.262 276.549C312.161 275.877 310.755 276.06 309.898 276.976C309.898 276.976 309.898 276.976 309.837 277.037C308.92 277.953 308.798 279.297 309.409 280.396L310.204 281.74C310.755 282.656 310.693 283.756 310.204 284.611C310.082 284.794 310.021 284.977 309.898 285.16C309.409 286.077 308.431 286.626 307.452 286.626H305.862C304.578 286.626 303.477 287.42 303.172 288.703C303.172 288.703 303.172 288.703 303.172 288.764C302.866 289.986 303.416 291.268 304.517 291.879L305.924 292.673C306.841 293.162 307.391 294.078 307.33 295.116C307.33 295.238 307.33 295.36 307.33 295.482C307.33 295.605 307.33 295.727 307.33 295.849C307.33 296.887 306.78 297.803 305.924 298.292L304.517 299.086C303.416 299.697 302.866 300.979 303.172 302.201C303.172 302.201 303.172 302.201 303.172 302.262C303.477 303.484 304.639 304.339 305.862 304.339H307.452C308.492 304.339 309.409 304.888 309.898 305.805C310.021 305.988 310.082 306.171 310.204 306.354C310.755 307.209 310.755 308.309 310.204 309.225L309.409 310.569C308.737 311.668 308.92 313.073 309.837 313.928C309.837 313.928 309.837 313.928 309.898 313.989C310.816 314.905 312.161 315.027 313.262 314.416L314.607 313.622C315.524 313.073 316.625 313.134 317.481 313.622C317.665 313.745 317.848 313.806 318.032 313.928C318.949 314.416 319.499 315.394 319.499 316.371V317.959C319.499 319.242 320.294 320.341 321.579 320.646C321.579 320.646 321.579 320.646 321.64 320.646C322.863 320.952 324.147 320.402 324.759 319.303L325.554 317.898C326.043 316.982 326.96 316.432 328 316.493C328.122 316.493 328.244 316.493 328.367 316.493C328.489 316.493 328.611 316.493 328.733 316.493C329.773 316.493 330.69 317.043 331.18 317.898L331.975 319.303C332.586 320.402 333.87 320.952 335.093 320.646C335.093 320.646 335.093 320.646 335.155 320.646C336.378 320.341 337.234 319.18 337.234 317.959V316.371C337.234 315.333 337.784 314.416 338.701 313.928C338.885 313.806 339.068 313.745 339.252 313.622C340.108 313.073 341.209 313.073 342.126 313.622L343.471 314.416C344.572 315.088 345.979 314.905 346.835 313.989C346.835 313.989 346.835 313.989 346.896 313.928C347.813 313.012 347.935 311.668 347.324 310.569L346.529 309.225C345.979 308.309 346.04 307.209 346.529 306.354C346.651 306.171 346.712 305.988 346.835 305.805C347.324 304.888 348.302 304.339 349.281 304.339H350.871C352.155 304.339 353.256 303.545 353.562 302.262C353.562 302.262 353.562 302.262 353.562 302.201C353.867 300.979 353.317 299.697 352.216 299.086ZM328.367 311.118C319.744 311.118 312.773 304.155 312.773 295.544C312.773 286.932 319.744 279.969 328.367 279.969C336.989 279.969 343.961 286.932 343.961 295.544C343.961 304.155 336.989 311.118 328.367 311.118Z" fill="white"/>
</g>
<path d="M483.399 281.299C483.223 285.527 479.784 288.886 475.553 288.963L122.985 295.43C121.146 295.464 119.353 294.864 117.905 293.73L114.71 291.227C112.774 289.711 111.643 287.388 111.643 284.929V85.1318C111.643 80.7136 115.224 77.1318 119.643 77.1318H480.321C482.112 77.1318 483.851 77.7327 485.26 78.8383L488.421 81.3193C490.446 82.9084 491.583 85.3748 491.475 87.9466L483.399 281.299Z" fill="#28292D"/>
<path d="M484.61 58.3544C483.682 60.5265 481.566 61.9518 479.204 61.9955L122.29 68.6024C120.902 68.6281 119.547 68.1716 118.458 67.3106L113.922 63.7253C112.482 62.5874 111.643 60.8532 111.643 59.0181V41.1719C111.643 37.8582 114.329 35.1719 117.643 35.1719H481.012C482.355 35.1719 483.659 35.6225 484.716 36.4517L488.023 39.0472C490.16 40.7241 490.904 43.6275 489.837 46.1252L484.61 58.3544Z" fill="#323338"/>
<path d="M483.583 83.8503H128.141C123.722 83.8503 120.141 87.4321 120.141 91.8503V287.483C120.141 291.901 123.722 295.483 128.141 295.483H483.583C488.001 295.483 491.583 291.901 491.583 287.483V91.8503C491.583 87.4321 488.001 83.8503 483.583 83.8503Z" fill="#313236"/>
<path d="M234.742 105.289H134.023V157.082H234.742V105.289Z" fill="#38393D"/>
<path d="M469.813 234.222H364.264V238.437H469.813V234.222Z" fill="#38393D"/>
<path d="M469.813 250.896H364.264V255.111H469.813V250.896Z" fill="#38393D"/>
<path d="M469.813 267.815H364.264V272.029H469.813V267.815Z" fill="#38393D"/>
<path d="M351.544 239.719H351.3C349.404 239.719 347.875 238.192 347.875 236.299C347.875 234.406 349.404 232.879 351.3 232.879H351.544C353.44 232.879 354.969 234.406 354.969 236.299C354.969 238.192 353.44 239.719 351.544 239.719Z" fill="#38393D"/>
<path d="M351.544 256.454H351.3C349.404 256.454 347.875 254.927 347.875 253.034C347.875 251.141 349.404 249.614 351.3 249.614H351.544C353.44 249.614 354.969 251.141 354.969 253.034C354.969 254.927 353.44 256.454 351.544 256.454Z" fill="#38393D"/>
<path d="M351.544 273.373H351.3C349.404 273.373 347.875 271.846 347.875 269.953C347.875 268.059 349.404 266.532 351.3 266.532H351.544C353.44 266.532 354.969 268.059 354.969 269.953C354.969 271.846 353.44 273.373 351.544 273.373Z" fill="#38393D"/>
<path d="M255.655 172.534H150.105V176.749H255.655V172.534Z" fill="#38393D"/>
<path d="M255.655 189.208H150.105V193.423H255.655V189.208Z" fill="#38393D"/>
<path d="M137.386 178.031H137.141C135.246 178.031 133.717 176.504 133.717 174.611C133.717 172.718 135.246 171.191 137.141 171.191H137.386C139.282 171.191 140.811 172.718 140.811 174.611C140.811 176.504 139.282 178.031 137.386 178.031Z" fill="#38393D"/>
<path d="M137.386 194.766H137.141C135.246 194.766 133.717 193.239 133.717 191.346C133.717 189.453 135.246 187.926 137.141 187.926H137.386C139.282 187.926 140.811 189.453 140.811 191.346C140.811 193.239 139.282 194.766 137.386 194.766Z" fill="#38393D"/>
<path d="M485.583 41.8904H126.141C122.827 41.8904 120.141 44.5767 120.141 47.8904V62.6422C120.141 65.9559 122.827 68.6422 126.141 68.6422H485.583C488.897 68.6422 491.583 65.9559 491.583 62.6422V47.8904C491.583 44.5767 488.897 41.8904 485.583 41.8904Z" fill="#3B3C42"/>
<path d="M178.764 55.6184C178.764 58.2394 176.642 60.3589 174.018 60.3589C171.394 60.3589 169.271 58.2394 169.271 55.6184C169.271 52.9974 171.394 50.8779 174.018 50.8779C176.642 50.8779 178.764 53.0055 178.764 55.6184Z" fill="#1ECB3D"/>
<path d="M159.28 55.6184C159.28 58.2394 157.158 60.3589 154.533 60.3589C151.909 60.3589 149.787 58.2394 149.787 55.6184C149.787 52.9974 151.909 50.8779 154.533 50.8779C157.15 50.8779 159.28 53.0055 159.28 55.6184Z" fill="#FEBE05"/>
<path d="M139.784 55.6184C139.784 58.2394 137.662 60.3589 135.037 60.3589C132.413 60.3589 130.291 58.2394 130.291 55.6184C130.291 52.9974 132.413 50.8779 135.037 50.8779C137.654 50.8779 139.784 53.0055 139.784 55.6184Z" fill="#FF6051"/>
<path d="M501.306 210.769H336.866C333.319 210.769 330.445 207.898 330.445 204.356V111.946C330.445 108.403 333.319 105.533 336.866 105.533H501.306C504.853 105.533 507.727 108.403 507.727 111.946V204.356C507.666 207.898 504.853 210.769 501.306 210.769Z" fill="#38393D"/>
<path d="M506.75 215.777H342.31C338.763 215.777 335.889 212.906 335.889 209.364V116.954C335.889 113.412 338.763 110.541 342.31 110.541H506.75C510.297 110.541 513.171 113.412 513.171 116.954V209.364C513.171 212.906 510.297 215.777 506.75 215.777Z" fill="#3E3F44"/>
<path d="M408.843 125.749H403.951V201.057H408.843V125.749Z" fill="#444549"/>
<path d="M397.959 125.749H393.066V201.057H397.959V125.749Z" fill="#444549"/>
<path d="M387.134 125.749H382.242V201.057H387.134V125.749Z" fill="#444549"/>
<path d="M376.25 125.749H371.357V201.057H376.25V125.749Z" fill="#444549"/>
<path d="M365.425 125.749H360.533V201.057H365.425V125.749Z" fill="#444549"/>
<path d="M354.541 125.749H349.648V201.057H354.541V125.749Z" fill="#444549"/>
<path d="M408.843 177.482H403.951V201.057H408.843V177.482Z" fill="#C6E0DD"/>
<path d="M397.959 152.135H393.066V201.057H397.959V152.135Z" fill="#C6E0DD"/>
<path d="M387.134 139.431H382.242V201.057H387.134V139.431Z" fill="#4C4D52"/>
<path d="M376.25 158.181H371.357V201.057H376.25V158.181Z" fill="#4C4D52"/>
<path d="M365.423 170.397H360.531V201.057H365.423V170.397Z" fill="#4C4D52"/>
<path d="M354.541 180.047H349.648V201.057H354.541V180.047Z" fill="#4C4D52"/>
<path d="M447.03 137.418C448.233 132.33 445.078 127.231 439.983 126.029C434.889 124.828 429.784 127.979 428.581 133.067C427.378 138.155 430.532 143.254 435.627 144.456C440.722 145.657 445.827 142.506 447.03 137.418Z" fill="#46474A"/>
<path d="M498.494 125.994H456.482V128.681H498.494V125.994Z" fill="#46474A"/>
<path d="M498.494 133.995H456.482V136.682H498.494V133.995Z" fill="#46474A"/>
<path d="M479.721 141.935H456.482V144.622H479.721V141.935Z" fill="#46474A"/>
<path d="M447.006 171.823C448.209 166.735 445.055 161.636 439.96 160.434C434.865 159.233 429.76 162.384 428.557 167.472C427.354 172.56 430.509 177.659 435.604 178.861C440.698 180.062 445.803 176.911 447.006 171.823Z" fill="#46474A"/>
<path d="M498.494 160.38H456.482V163.067H498.494V160.38Z" fill="#46474A"/>
<path d="M498.494 168.381H456.482V171.069H498.494V168.381Z" fill="#46474A"/>
<path d="M479.721 176.321H456.482V179.009H479.721V176.321Z" fill="#46474A"/>
<path d="M536.396 398.793H3.60355C1.61337 398.793 0 400.406 0 402.397C0 404.387 1.61338 406 3.60357 406H536.396C538.387 406 540 404.387 540 402.397C540 400.406 538.387 398.793 536.396 398.793Z" fill="#202124"/>
<path d="M327.206 181.574C327.206 181.574 317.421 169.603 312.284 168.076C307.148 166.549 316.259 174.489 315.954 175.894C315.587 177.298 310.45 181.757 313.63 185.299C316.81 188.842 322.68 189.392 322.68 189.392L327.206 181.574Z" fill="#FFAC95"/>
<path d="M402.79 183.65H387.685L386.034 178.459L383.771 171.313L391.354 167.282L394.962 165.327L402.79 183.65Z" fill="#FFAC95"/>
<path d="M391.354 167.282C390.193 172.962 387.685 176.627 386.034 178.52L383.771 171.313L391.354 167.282Z" fill="#E9928B"/>
<path d="M427.008 262.012L425.235 262.989C425.235 262.989 423.278 267.692 423.278 270.258C423.278 272.823 421.749 277.342 422.727 277.709C423.706 278.075 426.213 271.907 426.58 270.807C426.947 269.647 427.925 275.083 428.292 276.61C428.659 278.137 427.497 283.878 428.292 284.183C429.087 284.427 432.94 280.213 433.429 278.259C433.98 276.304 433.613 273.434 433.98 273.861C434.346 274.289 434.836 278.32 435.936 277.709C436.426 277.465 435.569 272.762 434.53 269.83C433.49 266.898 432.145 261.035 432.145 261.035L427.008 262.012Z" fill="#FFAC95"/>
<path d="M433.427 262.074C431.47 264.211 425.233 262.99 425.233 262.99C425.233 262.99 422.358 235.261 420.952 232.573C420.035 230.802 415.509 222.74 412.574 217.426C411.045 214.678 409.883 212.662 409.883 212.662C409.883 212.662 409.272 209.669 408.66 205.699C407.498 197.698 406.52 185.849 411.657 187.682C417.65 189.819 426.7 208.142 431.042 219.808C432.204 222.923 433.06 225.611 433.366 227.321C435.017 235.261 433.427 262.074 433.427 262.074Z" fill="#FFB156"/>
<path d="M448.594 372.562C447.616 373.295 451.163 384.777 449.879 386.121C448.656 387.526 440.278 396.687 440.278 396.687C440.278 396.687 438.993 392.656 440.094 388.442C441.073 384.838 441.378 377.814 435.263 368.653C434.285 367.187 433.123 365.599 431.777 364.011L439.972 352.345C439.972 352.345 443.213 356.804 446.393 359.736C446.943 360.224 447.494 360.713 448.044 361.079C451.652 363.644 460.458 374.272 460.458 374.272L456.544 378.608C456.605 378.731 449.634 371.829 448.594 372.562Z" fill="#434347"/>
<path d="M364.265 380.38C364.815 384.777 362.797 398.459 362.797 398.459H356.926C356.926 398.459 357.354 388.686 356.131 388.381C354.908 388.137 348.793 398.459 346.897 398.459C345.001 398.459 332.648 398.459 332.648 398.459C332.648 398.459 334.789 394.794 338.641 392.778C342.066 391.007 347.692 386.304 350.322 375.005C350.689 373.539 350.933 371.951 351.178 370.241L365.304 368.531C365.304 368.531 364.631 371.646 364.326 375.005C364.142 376.898 364.081 378.853 364.265 380.38Z" fill="#434347"/>
<path d="M351.178 370.302L365.305 368.592C365.305 368.592 364.632 371.707 364.326 375.066H350.322C350.628 373.539 350.934 371.951 351.178 370.302Z" fill="#E9928B"/>
<path d="M446.453 359.797L435.324 368.714C434.345 367.248 433.183 365.66 431.838 364.072L440.032 352.406C440.032 352.406 443.273 356.926 446.453 359.797Z" fill="#E9928B"/>
<path d="M446.026 355.766L432.389 367.493C432.389 367.493 422.605 357.293 413.004 346.482C404.381 336.832 395.881 326.632 394.536 322.723C393.007 318.509 391.845 311.302 390.989 305.255C390.194 299.453 389.766 294.75 389.766 294.75L390.438 280.397L392.151 243.567L392.884 243.14L401.446 238.009H407.378C407.378 238.009 407.745 238.62 408.356 239.719C411.108 244.544 418.752 258.409 419.608 263.906C420.648 270.563 415.327 315.882 418.018 318.57C420.709 321.074 446.026 355.766 446.026 355.766Z" fill="#2F2F33"/>
<path d="M413.065 346.421C404.442 336.771 395.942 326.571 394.597 322.662C391.661 314.416 389.766 294.688 389.766 294.688L390.438 280.335C398.266 272.884 405.665 265.921 405.665 265.921C405.665 265.921 410.496 291.512 405.665 301.102C400.834 310.691 410.741 312.095 406.705 323.211C402.913 333.534 415.083 332.984 413.065 346.421Z" fill="#333337"/>
<path d="M390.987 305.255C390.069 306.904 389.336 308.187 388.908 308.858C386.217 313.378 367.015 371.524 367.015 371.524H349.158C349.158 371.524 353.133 340.069 357.72 315.027C361.633 293.406 374.109 251.629 377.472 240.696C378.022 238.986 378.267 238.009 378.267 238.009H401.505C401.505 238.009 402.178 239.597 403.034 242.284C404.563 246.865 406.703 254.5 407.376 262.257C408.232 272.579 396.246 295.727 390.987 305.255Z" fill="#2F2F33"/>
<path d="M408.355 239.597C406.888 240.818 405.053 241.612 402.974 242.162C399.855 243.017 396.308 243.2 392.884 243.017C385.668 242.712 378.88 240.941 377.412 240.574C377.962 238.864 378.207 237.887 378.207 237.887H407.316C407.377 237.948 407.744 238.559 408.355 239.597Z" fill="#333337"/>
<path d="M414.654 207.043C414.409 210.28 413.859 213.334 413.125 215.716C412.942 216.266 412.758 216.876 412.575 217.487C410.312 225.183 407.377 237.948 407.377 237.948C405.236 239.047 402.851 239.719 400.405 240.147C389.887 241.796 378.207 237.948 378.207 237.948C378.207 237.948 380.347 226.221 376.066 221.396C371.786 216.571 370.746 210.402 370.746 210.402C370.746 210.402 352.767 217.304 348.303 216.449C343.839 215.533 321.457 191.041 321.457 189.453C321.457 187.865 327.144 181.635 327.144 181.635C327.144 181.635 349.22 201.363 349.893 201.363C350.627 201.363 371.969 188.231 378.207 184.811C382.854 182.307 390.621 180.658 394.29 179.986C395.574 179.742 396.308 179.619 396.308 179.619C396.308 179.619 396.797 179.803 397.653 180.108C400.711 181.268 408.172 184.322 411.596 187.682C412.269 188.292 412.758 188.964 413.064 189.575C414.715 192.934 415.204 200.325 414.654 207.043Z" fill="#FFB156"/>
<path d="M378.453 150.73C378.453 150.73 375.09 172.351 380.043 173.878C384.997 175.405 390.99 168.442 390.99 168.442C390.99 168.442 392.702 160.197 390.99 154.7C389.278 149.264 384.875 154.455 378.453 150.73Z" fill="#FFAC95"/>
<path d="M354.539 371.89L352.949 371.646C362.795 306.66 381.691 242.223 381.936 241.552L383.464 241.979C383.281 242.651 364.385 306.965 354.539 371.89Z" fill="#333337"/>
<path d="M397.348 276.06H397.103C396.798 276.06 390.01 275.51 388.909 258.958L388.848 258.103H405.237V258.897C405.237 259.447 404.809 272.212 397.531 275.938L397.348 276.06ZM390.621 259.691C391.661 272.273 396.125 274.167 397.042 274.411C402.301 271.479 403.402 262.501 403.647 259.691H390.621Z" fill="#333337"/>
<path d="M400.405 240.085C389.887 241.734 378.207 237.887 378.207 237.887C378.207 237.887 380.347 226.16 376.066 221.335C371.786 216.51 370.746 210.341 370.746 210.341C370.746 210.341 380.408 204.844 379.674 208.57C378.941 212.295 375.944 225.671 388.419 225.366C399.366 225.183 393.067 237.581 400.405 240.085Z" fill="#F5911F"/>
<path d="M431.042 219.747C427.984 217.731 423.336 218.098 420.279 212.173C418.75 209.18 416.793 207.837 414.653 207.043C412.818 206.371 410.8 206.127 408.721 205.699C405.419 205.027 401.811 203.989 398.264 200.202C389.947 191.285 394.228 180.291 394.35 179.986C394.472 179.986 395.756 180.047 397.713 180.108C400.771 181.268 408.232 184.322 411.656 187.681C417.71 189.819 426.7 208.142 431.042 219.747Z" fill="#F5911F"/>
<path d="M469.447 210.097C463.943 221.091 441.805 225.122 435.874 212.051C428.963 196.843 424.56 200.569 413.064 201.363C401.567 202.157 393.434 196.049 394.351 182.979C395.268 170.03 386.34 168.625 383.833 156.899C383.771 156.715 383.771 156.593 383.771 156.593C382.915 152.318 378.451 151.218 378.451 151.218C378.451 151.218 375.516 149.203 378.451 144.561C381.386 139.919 400.222 136.01 404.625 148.409C409.028 160.808 408.599 167.098 422.787 166.427C436.913 165.755 446.147 171.068 447.065 184.261C447.982 197.454 469.752 188.903 470.67 204.111C470.792 206.31 470.364 208.264 469.447 210.097Z" fill="#E33D15"/>
<path d="M107.037 401.024C107.037 401.024 107.832 380.441 124.649 371.463C141.466 362.484 153.452 374.394 153.452 374.394C153.452 374.394 162.38 348.742 187.575 349.597C212.77 350.452 214.544 371.463 214.544 371.463C214.544 371.463 243.225 363.4 259.185 378.975C275.513 394.855 272.211 402.123 272.211 402.123L107.037 401.024Z" fill="url(#paint1_linear_12131_58904)"/>
<path d="M149.6 398.581C149.478 398.52 138.898 389.603 127.096 385.449L127.463 384.472C139.449 388.686 150.211 397.665 150.273 397.787L149.6 398.581Z" fill="#00FFA3"/>
<path d="M122.081 395.466L121.592 394.489C121.898 394.306 129.358 390.58 143.056 392.534L142.934 393.573C129.542 391.74 122.142 395.405 122.081 395.466Z" fill="#00FFA3"/>
<path d="M180.605 398.092L179.688 397.543C179.688 397.543 180.972 395.405 182.623 391.557C185.436 384.656 189.105 373.112 188.616 352.346H189.655C190.145 373.356 186.414 385.022 183.601 391.985C181.95 395.894 180.666 397.97 180.605 398.092Z" fill="#00FFA3"/>
<path d="M182.255 394.794L181.582 393.939C192.528 385.633 207.694 384.778 207.878 384.778L207.939 385.816C207.755 385.877 192.895 386.671 182.255 394.794Z" fill="#00FFA3"/>
<path d="M187.698 378.975L186.658 378.67C187.698 375.066 198.644 361.446 199.072 360.896L199.928 361.568C199.867 361.69 188.676 375.555 187.698 378.975Z" fill="#00FFA3"/>
<path d="M184.213 385.633C180.788 380.38 175.529 366.882 175.346 366.332L176.324 365.966C176.385 366.088 181.767 379.891 185.13 385.083L184.213 385.633Z" fill="#00FFA3"/>
<path d="M221.943 397.298L223.35 396.26C223.472 396.138 237.109 386.488 251.725 385.816L251.786 386.854C240.35 387.404 229.465 393.573 225.551 396.077L239.739 395.588L239.8 396.627L221.943 397.298Z" fill="#00FFA3"/>
<path d="M233.135 391.801L232.096 391.435C234.358 384.9 239.067 378.731 239.251 378.487L240.107 379.158C240.107 379.219 235.337 385.449 233.135 391.801Z" fill="#00FFA3"/>
<path d="M469.448 210.097C463.944 221.091 441.807 225.122 435.875 212.051C428.965 196.843 424.562 200.569 413.065 201.363C401.568 202.157 393.435 196.049 394.352 182.979C395.27 170.03 386.341 168.625 383.834 156.899C384.201 158.426 386.28 165.633 393.068 167.893C400.712 170.397 407.684 177.543 403.892 185.727C400.162 193.85 414.288 192.629 424.501 183.65C434.652 174.672 442.357 189.27 440.706 202.035C439.3 213.945 458.074 220.969 469.448 210.097Z" fill="#E33D15"/>
<path d="M456.677 49.5249C466.099 49.3869 473.625 41.6465 473.487 32.2363C473.349 22.826 465.599 15.3093 456.177 15.4472C446.755 15.5852 439.229 23.3256 439.367 32.7358C439.505 42.1461 447.255 49.6628 456.677 49.5249Z" fill="#303034"/>
<path d="M463.272 26.6212C458.869 24.2391 456.423 30.3469 456.423 30.3469C456.423 30.3469 453.976 24.2391 449.573 26.6822C444.62 29.4307 449.023 38.2258 456.484 42.0737C463.822 38.1647 468.225 29.3085 463.272 26.6212Z" fill="#B2E5E0"/>
<path d="M460.519 52.2126C469.942 52.2126 477.58 44.5833 477.58 35.1721C477.58 25.7609 469.942 18.1316 460.519 18.1316C451.096 18.1316 443.457 25.7609 443.457 35.1721C443.457 44.5833 451.096 52.2126 460.519 52.2126Z" fill="#434347"/>
<path d="M467.369 29.3084C462.966 26.9264 460.52 33.0341 460.52 33.0341C460.52 33.0341 458.074 26.9264 453.671 29.3695C448.718 32.118 453.121 40.9131 460.581 44.7609C467.981 40.852 472.384 31.9958 467.369 29.3084Z" fill="#4C4C51"/>
<path d="M521.299 94.0181C528.695 94.0181 534.691 88.0295 534.691 80.6422C534.691 73.2549 528.695 67.2664 521.299 67.2664C513.902 67.2664 507.906 73.2549 507.906 80.6422C507.906 88.0295 513.902 94.0181 521.299 94.0181Z" fill="#303034"/>
<path d="M521.3 76.0615L525.886 73.6184L525.03 78.7489L528.761 82.3524L523.624 83.0854L521.3 87.7272L519.037 83.0854L513.9 82.3524L517.631 78.7489L516.775 73.6184L521.3 76.0615Z" fill="#303034"/>
<path d="M524.906 96.7664C532.303 96.7664 538.299 90.7778 538.299 83.3905C538.299 76.0032 532.303 70.0146 524.906 70.0146C517.51 70.0146 511.514 76.0032 511.514 83.3905C511.514 90.7778 517.51 96.7664 524.906 96.7664Z" fill="#434347"/>
<path d="M524.907 78.7487L529.494 76.3057L528.638 81.4362L532.307 85.0397L527.231 85.7726L524.907 90.4145L522.645 85.7726L517.508 85.0397L521.238 81.4362L520.321 76.3057L524.907 78.7487Z" fill="#4C4C51"/>
<path opacity="0.03" d="M134.023 254.744V212.357C134.023 212.357 148.822 216.082 152.736 229.397C156.711 242.712 170.409 248.331 177.564 244.056C184.719 239.78 184.291 228.359 193.709 224.328C203.126 220.358 208.936 230.191 220.004 241.124C231.073 252.057 245.872 254.195 257.491 244.3C269.11 234.467 280.301 231.779 289.107 240.819C297.852 249.858 301.827 250.652 311.856 248.82C321.885 246.926 328.367 254.683 328.367 254.683H134.023V254.744Z" fill="white"/>
<path d="M328.366 267.876H148.883V271.785H328.366V267.876Z" fill="#38393D"/>
<path d="M139.1 265.677C136.837 265.677 134.941 267.509 134.941 269.83C134.941 272.09 136.776 273.984 139.1 273.984C141.362 273.984 143.258 272.151 143.258 269.83C143.258 267.57 141.424 265.677 139.1 265.677Z" fill="#38393D"/>
<g opacity="0.38">
<path d="M134.025 254.744H328.368C328.368 254.744 324.271 231.29 309.228 231.29C294.184 231.29 297.914 251.996 278.468 246.682C259.021 241.368 256.942 209.669 236.089 208.081C215.236 206.493 210.221 236.054 199.397 236.054C188.573 236.054 186.494 223.778 172.734 222.984C159.036 222.19 159.831 242.467 149.802 243.506C139.834 244.666 133.719 251.018 134.025 254.744Z" fill="#3B3C41"/>
</g>
<path d="M302.805 157.021H260.304C257.736 157.021 255.656 154.944 255.656 152.379V109.93C255.656 107.365 257.736 105.289 260.304 105.289H302.805C305.374 105.289 307.453 107.365 307.453 109.93V152.379C307.392 154.944 305.374 157.021 302.805 157.021Z" fill="#38393D"/>
<path d="M308.127 162.273H265.626C263.058 162.273 260.979 160.197 260.979 157.632V115.183C260.979 112.618 263.058 110.541 265.626 110.541H308.127C310.696 110.541 312.775 112.618 312.775 115.183V157.632C312.775 160.197 310.696 162.273 308.127 162.273Z" fill="#4991FF"/>
<path d="M276.875 150.974L297.667 136.438L276.875 121.84V150.974Z" fill="#C2D2EB"/>
<path d="M145.99 149.02C145.99 149.02 143.482 140.713 143.482 138.087C143.482 135.461 145.929 127.948 147.274 127.826C148.619 127.643 151.31 142.24 152.472 144.256C153.634 146.271 151.493 149.081 151.493 149.081H145.99V149.02Z" fill="#91415C"/>
<path d="M21.972 332.862L13.166 323.151L16.5294 319.669L23.3785 312.645L31.8788 321.99L25.2743 329.258L21.972 332.862Z" fill="#91415C"/>
<path d="M25.2741 329.258L16.5293 319.669L23.3784 312.645L31.8786 321.99L25.2741 329.258Z" fill="#75354A"/>
<path d="M13.1669 323.151L21.9729 332.862C21.9729 332.862 21.4837 341.291 25.2752 346.421C29.0667 351.551 30.0451 355.155 28.3328 358.942L2.03711 330.052L13.1669 323.151Z" fill="#434347"/>
<path d="M21.9122 336.343C19.8942 334.877 15.0631 333.534 15.002 333.534L15.1242 333.045C15.3077 333.106 20.0776 334.389 22.1568 335.977L21.9122 336.343Z" fill="#49494E"/>
<path d="M22.2792 339.153C19.8331 338.114 16.0416 338.542 16.0416 338.542L15.9805 337.992C16.1639 337.992 19.9554 337.565 22.5238 338.664L22.2792 339.153Z" fill="#49494E"/>
<path d="M18.242 343L18.0586 342.512C18.1809 342.451 20.627 341.535 23.012 341.351L23.0731 341.901C20.7493 342.023 18.242 343 18.242 343Z" fill="#49494E"/>
<path d="M2.08276 330.065L0 331.954L26.2673 360.85L28.3501 358.962L2.08276 330.065Z" fill="#49494E"/>
<path d="M89.0573 246.377C89.0573 246.377 88.8739 247.293 88.5681 248.82C87.8954 252.118 86.6724 258.348 85.0212 265.066C82.942 273.678 80.1902 283.023 77.3771 287.848C74.136 293.406 60.8658 305.133 49.308 314.722C39.5235 322.906 30.9621 329.503 30.9621 329.503L13.1055 311.179C13.1055 311.179 50.0418 277.892 51.0202 276.61C51.9987 275.266 56.4017 255.966 58.0528 240.696C58.7866 234.1 60.8047 227.015 62.8839 221.152C65.5746 213.456 68.3877 207.837 68.3877 207.837L85.6939 214.189L85.8774 215.777L87.5285 232.023L89.0573 246.377Z" fill="#2F2F33"/>
<path d="M88.5668 248.881C87.8941 252.179 86.671 258.409 85.0199 265.127C82.9407 273.739 80.1888 283.084 77.3758 287.909C74.1347 293.467 60.8645 305.194 49.3066 314.783C52.0585 299.758 69.854 301.102 67.2244 290.108C64.4725 278.686 75.9693 274.166 71.3828 259.264C66.7963 244.361 74.1959 234.405 74.1959 234.405C74.1959 234.405 80.9838 241.063 88.5668 248.881Z" fill="#333337"/>
<path d="M124.952 129.597C124.952 129.597 121.956 131.918 119.754 136.743C118.898 138.637 118.226 140.896 117.859 143.523C116.636 152.99 100.186 142.79 100.186 142.79L108.135 126.116L114.679 122.634L119.754 126.116L124.952 129.597Z" fill="#91415C"/>
<path d="M100.186 140.408C100.186 140.408 101.47 136.377 103.304 136.193C105.139 136.071 118.593 138.026 119.204 141.141C119.816 144.256 119.204 146.271 119.204 146.271L100.186 140.408Z" fill="#F5911F"/>
<path d="M151.187 154.822L152.533 148.653C152.533 148.653 146.356 147.065 144.033 147.371C141.709 147.676 139.568 154.822 139.568 154.822H151.187Z" fill="#F5911F"/>
<path d="M116.637 186.826C116.637 186.826 125.259 189.147 143.422 172.84C161.645 156.532 128.317 162.945 128.317 162.945L116.637 186.826Z" fill="#F5911F"/>
<path d="M148.009 337.381H92.543V338.969H148.009V337.381Z" fill="#333337"/>
<path d="M114.128 398.092L97.2494 320.585L80.3712 398.092L78.7812 397.726L96.4544 316.615C96.5156 316.249 96.8825 316.005 97.2494 316.005C97.6163 316.005 97.9221 316.249 98.0444 316.615L115.656 397.726L114.128 398.092Z" fill="#333337"/>
<path d="M114.557 352.162H101.409L101.104 347.337L100.492 337.565H113.09L114.068 347.337L114.557 352.162Z" fill="#91415C"/>
<path d="M114.068 347.337H101.104L100.492 337.565H113.09L114.068 347.337Z" fill="#75354A"/>
<path d="M101.41 352.162H114.558C114.558 352.162 120.428 358.148 126.788 358.82C133.148 359.492 136.45 361.141 138.163 364.989H99.0859L101.41 352.162Z" fill="#434347"/>
<path d="M110.337 357.781L110.031 357.354C110.215 357.232 114.373 354.605 116.942 354.056L117.064 354.605C114.557 355.094 110.398 357.781 110.337 357.781Z" fill="#49494E"/>
<path d="M114.743 360.408L114.314 360.102C114.437 359.98 116.638 356.865 119.146 355.705L119.39 356.193C117.005 357.293 114.743 360.346 114.743 360.408Z" fill="#49494E"/>
<path d="M119.511 361.813L119.021 361.629C119.083 361.507 120 359.064 121.529 357.171L121.957 357.476C120.489 359.247 119.572 361.751 119.511 361.813Z" fill="#49494E"/>
<path d="M138.102 365.05H99.0254V367.859H138.102V365.05Z" fill="#49494E"/>
<path d="M169.717 398.092L152.839 320.585L135.961 398.092L134.371 397.726L152.044 316.615C152.105 316.249 152.472 316.004 152.839 316.004C153.206 316.004 153.512 316.249 153.634 316.615L171.307 397.726L169.717 398.092Z" fill="#333337"/>
<path d="M141.772 367.065H86.123V368.653H141.772V367.065Z" fill="#333337"/>
<path d="M122.384 345.26H95.4764C95.4764 345.26 96.0268 300.491 96.0268 292.551C96.0268 286.871 90.6454 277.526 85.0193 265.127C82.7566 260.119 80.4328 254.561 78.4148 248.575C75.6017 240.208 73.8895 233.001 72.911 227.382C71.4433 219.075 71.4434 214.25 71.4434 214.25L85.8754 215.838L106.973 218.22C106.973 218.22 109.297 226.404 112.171 236.91C116.758 253.767 122.751 276.61 122.934 281.923C123.24 290.535 122.384 345.26 122.384 345.26Z" fill="#2F2F33"/>
<path d="M112.173 236.91C106.364 234.466 100.31 232.084 94.3779 232.39C92.0541 232.512 89.7914 232.39 87.5899 232.084C82.1473 231.352 77.1328 229.458 72.9132 227.382C68.5102 225.244 65.0245 222.862 62.9453 221.274C65.636 213.578 68.4491 207.959 68.4491 207.959L85.6942 214.189L85.8776 215.777L106.975 218.159C106.975 218.22 109.299 226.343 112.173 236.91Z" fill="#333337"/>
<path d="M195.829 153.234C195.829 153.234 173.386 175.161 166.904 176.626C160.421 178.092 136.511 170.397 132.536 170.641C130.762 170.763 126.91 183.406 123.302 197.209C118.96 213.945 114.801 232.329 114.801 232.329C114.801 232.329 103.61 227.87 85.3868 226.587C82.6961 226.404 80.3111 225.977 78.1096 225.488C65.4509 222.312 60.7422 214.189 60.7422 214.189C78.66 188.536 78.9046 166.182 82.696 152.196C86.4264 138.27 101.409 137.293 112.6 140.774C117.553 142.301 128.316 144.256 133.269 146.027C138.223 147.798 163.907 157.692 165.68 157.692C167.454 157.692 188.613 145.721 188.613 145.721C195.34 145.782 195.829 153.234 195.829 153.234Z" fill="#FFB156"/>
<path d="M189.041 147.37C189.041 147.37 193.383 143.584 196.991 142.057C200.66 140.591 205.613 137.476 205.613 139.125C205.613 140.774 201.149 143.034 201.149 143.034L214.786 141.812C214.786 141.812 208.793 147.92 203.962 149.081C199.131 150.241 193.016 152.379 193.016 152.379L189.041 147.37Z" fill="#91415C"/>
<path d="M228.592 92.6479L146.324 99.5002L150.298 147.095L232.566 140.243L228.592 92.6479Z" fill="#29292D"/>
<path d="M224.012 98.0548L151.678 104.08L154.824 141.754L227.158 135.729L224.012 98.0548Z" fill="#323236"/>
<path d="M162.562 141.69L176.628 111.824L195.402 138.942L162.562 141.69Z" fill="#3A3A3E"/>
<path d="M193.934 139.125L204.819 116.038L219.373 136.988L193.934 139.125Z" fill="#3A3A3E"/>
<path d="M191.307 114.997C194.006 114.865 196.086 112.572 195.953 109.877C195.82 107.181 193.524 105.104 190.826 105.237C188.127 105.37 186.047 107.662 186.18 110.358C186.313 113.053 188.609 115.13 191.307 114.997Z" fill="#3A3A3E"/>
<path d="M115.718 345.444H114.128C114.128 344.955 114.189 297.376 113.945 285.894C113.7 274.594 93.8866 228.603 93.7031 228.176L95.1708 227.565C95.9658 229.458 115.29 274.228 115.535 285.894C115.779 297.376 115.718 344.955 115.718 345.444Z" fill="#333337"/>
<path d="M123.364 197.271C119.022 214.006 114.864 232.39 114.864 232.39C114.864 232.39 103.673 227.931 85.449 226.649C82.7583 226.466 80.3734 226.038 78.1719 225.549C78.5999 225.061 79.028 224.633 79.5172 224.206C94.4997 210.769 100.126 219.747 107.464 210.036C113.029 202.768 118.349 202.34 123.364 197.271Z" fill="#F5911F"/>
<path d="M131.557 106.693L134.309 103.823C134.309 103.823 134.553 98.6921 129.417 92.0958C124.28 85.4384 121.283 87.9425 123.607 92.0958C125.931 96.249 118.96 94.1113 112.722 93.2562C106.484 92.4011 101.347 93.3173 104.405 97.3484C107.463 101.379 104.833 101.563 97.1891 104.678C89.545 107.793 90.7069 112.496 97.1891 112.984C103.671 113.473 99.3295 117.321 94.3761 122.634C89.3616 127.948 93.2142 130.941 98.7179 127.948C104.222 124.955 105.384 128.253 103.549 132.895C101.714 137.537 108.197 133.567 111.193 130.269C114.19 126.971 113.333 132.773 117.92 125.444C122.445 118.176 131.557 106.693 131.557 106.693Z" fill="#E33D15"/>
<path d="M124.954 129.597C124.954 129.597 121.957 131.918 119.756 136.743C116.148 132.895 118.227 126.238 118.227 126.238L119.756 126.054L124.954 129.597Z" fill="#75354A"/>
<path d="M134.31 103.823C134.31 103.823 133.454 112.251 135.044 116.527C136.634 120.863 138.224 120.985 136.267 122.695C134.371 124.344 133.087 124.039 132.72 125.932C132.292 127.826 133.148 134.422 128.317 134.239C123.486 134.056 118.349 127.215 117.86 125.444C117.86 125.444 112.784 123.795 112.723 119.58C112.662 115.366 116.821 113.961 118.472 115.916C120.123 117.931 121.957 115.305 122.019 112.19C122.08 109.075 124.098 104.555 127.522 104.8C130.886 105.044 132.476 101.624 134.31 103.823Z" fill="#91415C"/>
</g>
<defs>
<linearGradient id="paint0_linear_12131_58904" x1="245.371" y1="328.082" x2="245.371" y2="393.546" gradientUnits="userSpaceOnUse">
<stop stop-color="#00FFA3"/>
<stop offset="1" stop-color="#00FFA3" stop-opacity="0"/>
</linearGradient>
<linearGradient id="paint1_linear_12131_58904" x1="189.761" y1="349.576" x2="189.761" y2="402.123" gradientUnits="userSpaceOnUse">
<stop stop-color="#00FFA3"/>
<stop offset="1" stop-color="#00FFA3" stop-opacity="0"/>
</linearGradient>
<clipPath id="clip0_12131_58904">
<rect width="540" height="406" fill="white"/>
</clipPath>
</defs>
</svg>
