<svg width="519" height="460" viewBox="0 0 519 460" fill="none" xmlns="http://www.w3.org/2000/svg">
<path d="M358.545 165.126C322.762 131.585 280.839 122.926 269.762 121.159C277.227 101.026 288.757 71.0966 291.629 66.6679C292.557 66.5464 294.445 66.3477 297.228 66.3477C305.368 66.3477 322.784 68.0374 347.998 79.3796C384.388 95.7579 394.14 114.179 396.05 118.685L358.545 165.126Z" fill="#2A2B2E"/>
<path d="M297.241 68.5563C305.203 68.5563 322.266 70.2239 347.105 81.4005C380.027 96.2216 390.673 112.777 393.478 118.387L358.325 161.901C337.176 142.64 314.37 132.004 298.61 126.405C287.423 122.429 278.278 120.397 272.789 119.414C281.039 97.2487 290.007 74.4428 293.022 68.733C293.983 68.6446 295.396 68.5563 297.241 68.5563ZM297.241 64.1387C292.812 64.1387 290.537 64.6025 290.537 64.6025C287.953 65.464 266.748 122.959 266.748 122.959C266.748 122.959 317.065 128.095 358.767 168.372L398.57 119.094C398.57 119.094 391.932 96.7186 348.916 77.3694C323.702 66.0162 306.131 64.1387 297.241 64.1387Z" fill="#29292D"/>
<path d="M331.465 221.009C328.417 218.767 326.418 217.265 326.418 217.265C327.257 216.139 340.61 201.914 348.34 190.45C348.351 190.461 332.713 221.926 331.465 221.009Z" fill="#2A1E17"/>
<path fill-rule="evenodd" clip-rule="evenodd" d="M142.017 116.865C142.278 116.708 142.618 116.792 142.775 117.053C143.137 117.653 143.412 117.981 143.662 118.166C143.889 118.335 144.127 118.409 144.483 118.418C144.869 118.428 145.347 118.361 146.053 118.258L146.07 118.255C146.757 118.156 147.614 118.031 148.698 117.947C150.986 117.771 153.7 118.516 156.108 119.965C158.521 121.417 160.679 123.608 161.809 126.385C162.885 129.028 163.305 130.656 163.258 131.738C163.233 132.304 163.08 132.747 162.81 133.104C162.548 133.448 162.209 133.668 161.903 133.843C161.691 133.964 161.373 134.067 161.039 134.16C160.688 134.258 160.257 134.36 159.784 134.466C159.445 134.543 159.083 134.621 158.708 134.703C158.025 134.852 157.296 135.01 156.571 135.183C155.449 135.45 154.382 135.742 153.583 136.061C153.181 136.222 152.873 136.379 152.665 136.527C152.452 136.68 152.421 136.769 152.419 136.774C152.419 136.774 152.419 136.774 152.419 136.774C152.359 137.073 152.067 137.267 151.768 137.207C151.47 137.147 151.276 136.855 151.336 136.556C151.419 136.143 151.726 135.842 152.023 135.629C152.335 135.406 152.735 135.21 153.173 135.036C154.052 134.685 155.185 134.378 156.315 134.109C157.048 133.934 157.8 133.77 158.491 133.62C158.863 133.539 159.217 133.462 159.542 133.389C160.011 133.283 160.419 133.186 160.743 133.096C161.084 133.001 161.277 132.928 161.355 132.884C161.63 132.727 161.808 132.597 161.93 132.436C162.042 132.288 162.138 132.072 162.154 131.69C162.19 130.874 161.864 129.449 160.787 126.802C159.764 124.289 157.791 122.267 155.538 120.911C153.28 119.552 150.792 118.894 148.783 119.049C147.736 119.129 146.909 119.25 146.224 119.349L146.183 119.355C145.523 119.451 144.949 119.535 144.456 119.522C143.926 119.509 143.453 119.386 143.004 119.053C142.578 118.738 142.213 118.261 141.829 117.623C141.672 117.362 141.756 117.023 142.017 116.865Z" fill="#2A1E17"/>
<path d="M253.595 386.215L249.74 379.71L236.09 402.472L239.668 405.222L253.595 386.215Z" fill="#F9865F"/>
<path d="M162.922 329.781C162.922 329.781 155.843 318.273 158.88 312.641L181.454 315.059L162.922 329.781Z" fill="#F9865F"/>
<path d="M162.922 329.78L164.269 332.883L160.095 349.14C159.565 351.183 160.249 353.359 161.851 354.739L182.492 324.224C184.458 321.331 184.005 317.432 181.443 315.047L176.826 310.762L162.922 329.78Z" fill="#434347"/>
<path d="M151.878 136.663C158.338 136.508 166.533 136.1 164.899 131.185C163.264 126.271 157.113 113.979 143.186 117.667C143.186 117.667 138.271 121.765 144.412 129.131C150.563 136.508 151.878 136.663 151.878 136.663Z" fill="#434347"/>
<path d="M184.6 315.334C184.6 315.334 173.567 282.755 182.899 268.453C190.608 256.646 215.777 275.852 219.234 278.436L237.247 245.901C237.247 245.901 233.083 240.069 222.878 234.36C212.674 228.65 170.496 211.554 150.672 242.83C143.35 254.393 143.24 303.981 157.288 322.988L184.6 315.334Z" fill="#2F2F33"/>
<path d="M237.249 245.899C229.054 254.525 204.768 296.536 199.301 316.614C191.99 343.474 194.74 365.749 234.896 409.362L254.312 381.09C254.312 381.09 240.661 360.36 243.212 340.834C246.901 312.572 267.012 285.172 277.184 267.789L237.249 245.899Z" fill="#2F2F33"/>
<path d="M425.781 222.907C430.817 223.99 434.65 225.9 437.289 228.661C439.929 231.422 438.725 232.858 437.764 233.697C436.803 234.537 433.092 233.576 429.857 230.704C426.621 227.833 425.781 222.907 425.781 222.907Z" fill="#FF8A66"/>
<path d="M326.418 217.263C327.257 216.137 340.61 201.912 348.34 190.448C348.34 190.448 371.699 216.623 374.239 217.473C375.177 217.782 380.909 217.716 388.022 217.639C400.038 217.517 416.018 217.396 419.552 219.163C425.185 221.979 428.564 223.382 429.967 227.324C431.37 231.267 431.933 233.84 428.564 234.083C424.622 234.359 422.093 229.301 422.093 229.301C422.093 229.301 418.868 231.245 410.551 234.37C410.551 234.37 380.611 245.989 360.599 240.367C355.144 238.832 326.418 217.263 326.418 217.263Z" fill="#F9865F"/>
<path d="M144.941 112.71C142.368 113.693 140.811 114.852 142.302 117.337C143.793 119.811 144.444 118.828 148.74 118.497C153.037 118.166 159.144 121.302 161.298 126.592C163.451 131.882 162.788 132.7 161.629 133.362C160.469 134.025 152.208 135.019 151.877 136.664C151.546 138.321 155.223 143.191 162.822 142.86L164.644 142.529C164.644 142.529 180.625 158.134 182.933 160.453C185.241 162.773 202.238 174.28 211.603 176.622C218.715 178.4 233.139 176.103 241.798 174.413C246.005 173.596 248.855 172.911 248.855 172.911C248.855 172.911 242.35 161.204 241.035 143.191C241.035 143.191 225.485 145.687 215.148 147.963C215.148 147.963 191.028 134.511 179.299 128.569C179.299 128.569 169.061 116.012 164.268 114.367C159.475 112.71 148.409 111.396 144.941 112.71Z" fill="#F9865F"/>
<path d="M239.303 142.981C239.303 142.981 239.524 164.981 245.421 174.169L247.531 173.319C247.531 173.319 219.744 205.822 210.765 227.059C209.296 230.538 268.448 268.32 277.184 267.79C277.184 267.79 306.009 223.801 315.86 210.769L326.452 218.975C326.452 218.975 347.225 197.936 348.341 190.459C348.341 190.459 328.274 166.041 311.851 158.884C295.429 151.739 280.762 139.48 263.125 139.822C247.862 140.11 239.303 142.981 239.303 142.981Z" fill="#FFB156"/>
<path d="M326.451 218.975L315.859 210.758L317.549 206.164L326.451 218.975Z" fill="#2A1E17"/>
<path d="M342.564 131.959C340.709 137.724 335.353 154.412 329.378 156.477C323.403 158.542 317.185 155.947 317.185 155.947L310.824 159.205C310.117 161.336 305.092 163.17 298.609 163.424C293.805 163.611 290.878 157.438 292.303 152.976C292.955 150.922 295.395 140.817 295.395 140.817C295.395 140.817 300.542 121.865 305.28 117.944C310.018 114.035 314.468 110.158 327.114 115.261C346.485 123.102 342.564 131.959 342.564 131.959Z" fill="#F9865F"/>
<path d="M304.175 132.776C303.324 136.322 299.635 143.401 297.228 142.131C294.82 140.861 293.97 137.592 295.671 131.363C297.371 125.134 298.785 110.953 303.6 108.413C308.415 105.862 310.547 108.833 310.547 108.833C310.547 108.833 308.427 98.4847 314.655 97.0711C314.655 97.0711 316.776 96.0771 315.925 103.167C315.925 103.167 318.333 96.6514 326.13 97.5018C333.927 98.3522 336.611 109.264 336.611 109.264C336.611 109.264 337.174 106.293 340.719 106.293C344.264 106.293 349.643 111.539 348.373 117.348C348.373 117.348 357.44 114.51 362.255 121.743C367.07 128.966 366.507 136.907 354.889 140.021C342.74 143.279 342.84 129.11 341.006 127.266C339.162 125.421 337.185 123.301 330.382 125.852C323.579 128.403 316.5 120.893 316.5 120.893C316.5 120.893 315.362 129.96 314.236 130.811C313.098 131.661 310.834 132.799 311.397 128.547C311.961 124.295 312.667 124.725 312.248 123.588C311.828 122.45 309.906 118.883 305.875 122.031C301.336 125.554 304.175 132.776 304.175 132.776Z" fill="#E33D15"/>
<path d="M239.666 405.221L241.013 408.324L236.839 424.581C236.309 426.624 236.993 428.8 238.595 430.18L259.236 399.666C261.202 396.772 260.749 392.874 258.187 390.488L253.571 386.203L239.666 405.221Z" fill="#434347"/>
<path d="M155.005 176.943C156.603 176.943 157.898 175.648 157.898 174.05C157.898 172.452 156.603 171.156 155.005 171.156C153.407 171.156 152.111 172.452 152.111 174.05C152.111 175.648 153.407 176.943 155.005 176.943Z" fill="#2A1E17"/>
<path opacity="0.05" d="M228.855 120.464C232.289 120.464 235.072 117.68 235.072 114.246C235.072 110.812 232.289 108.028 228.855 108.028C225.421 108.028 222.637 110.812 222.637 114.246C222.637 117.68 225.421 120.464 228.855 120.464Z" fill="white"/>
<path opacity="0.05" d="M482.105 406.107C483.611 406.107 484.833 404.886 484.833 403.379C484.833 401.873 483.611 400.651 482.105 400.651C480.598 400.651 479.377 401.873 479.377 403.379C479.377 404.886 480.598 406.107 482.105 406.107Z" fill="white"/>
<path d="M433.302 280.018L403.936 266.235C401.561 265.119 401.606 261.74 404.002 260.68L458.626 236.648C459.399 236.305 460.283 236.305 461.056 236.637L498.583 252.739L433.302 280.018Z" fill="#29292D"/>
<path d="M431.479 234.726C431.556 246.874 433.301 280.018 433.301 280.018L498.582 252.75L497.113 206.641C497.025 203.814 494.087 201.98 491.503 203.162L435.289 228.773C432.958 229.834 431.468 232.164 431.479 234.726Z" fill="#434347"/>
<path opacity="0.1" fill-rule="evenodd" clip-rule="evenodd" d="M469.522 235.951C469.803 236.07 469.934 236.394 469.815 236.675L465.409 247.089C465.29 247.37 464.966 247.501 464.685 247.383C464.404 247.264 464.273 246.94 464.391 246.659L468.798 236.244C468.917 235.964 469.241 235.832 469.522 235.951Z" fill="white"/>
<path opacity="0.1" fill-rule="evenodd" clip-rule="evenodd" d="M473.926 235.951C474.207 236.07 474.338 236.394 474.219 236.675L469.813 247.089C469.694 247.37 469.37 247.501 469.089 247.383C468.808 247.264 468.677 246.94 468.796 246.659L473.202 236.244C473.321 235.964 473.645 235.832 473.926 235.951Z" fill="white"/>
<path opacity="0.05" d="M127.878 360.517C129.385 360.517 130.606 359.296 130.606 357.789C130.606 356.283 129.385 355.062 127.878 355.062C126.372 355.062 125.15 356.283 125.15 357.789C125.15 359.296 126.372 360.517 127.878 360.517Z" fill="white"/>
<path opacity="0.05" d="M358.18 375.129C360.278 375.129 361.979 373.428 361.979 371.329C361.979 369.231 360.278 367.53 358.18 367.53C356.082 367.53 354.381 369.231 354.381 371.329C354.381 373.428 356.082 375.129 358.18 375.129Z" fill="white"/>
<path d="M156.187 398.289C160.626 400.42 173.559 405.799 190.677 405.688C191.616 405.677 192.334 406.505 192.223 407.444L189.838 426.363C189.75 427.036 189.242 427.577 188.579 427.699C183.742 428.604 164.26 431.277 149.682 418.919C149.229 418.532 149.041 417.914 149.196 417.34L154.011 399.305C154.265 398.355 155.314 397.869 156.187 398.289Z" fill="#2F2F33"/>
<path fill-rule="evenodd" clip-rule="evenodd" d="M157.578 403.405C157.826 403.228 158.171 403.286 158.348 403.535L157.898 403.855L157.448 404.175C157.271 403.927 157.329 403.582 157.578 403.405ZM169.589 416.903C168.928 416.529 167.895 415.54 166.677 414.183C165.477 412.849 164.152 411.222 162.916 409.641C161.681 408.062 160.538 406.535 159.705 405.402C159.288 404.836 158.948 404.369 158.713 404.043C158.596 403.88 158.504 403.753 158.442 403.667L158.372 403.568L158.348 403.535C158.348 403.535 158.348 403.535 157.898 403.855C157.448 404.175 157.448 404.175 157.448 404.175L157.473 404.21L157.544 404.31C157.607 404.397 157.699 404.526 157.818 404.69C158.055 405.018 158.396 405.488 158.815 406.057C159.653 407.195 160.802 408.732 162.046 410.322C163.289 411.911 164.632 413.56 165.855 414.922C167.059 416.261 168.204 417.388 169.045 417.864L169.047 417.865C169.589 418.17 170.329 418.179 171.082 418.074C171.863 417.965 172.78 417.714 173.767 417.375C175.743 416.696 178.076 415.635 180.298 414.531C182.523 413.424 184.652 412.266 186.224 411.385C187.01 410.944 187.658 410.572 188.109 410.31C188.334 410.179 188.511 410.076 188.631 410.005L188.769 409.924L188.804 409.903L188.816 409.896C188.816 409.896 188.817 409.896 188.534 409.421L188.817 409.896C189.079 409.74 189.165 409.401 189.009 409.139C188.853 408.877 188.514 408.791 188.252 408.947L188.534 409.421C188.252 408.947 188.252 408.947 188.252 408.947L188.24 408.953L188.206 408.974L188.071 409.053C187.953 409.123 187.778 409.225 187.554 409.355C187.107 409.614 186.465 409.984 185.684 410.421C184.122 411.297 182.01 412.446 179.806 413.542C177.599 414.639 175.316 415.675 173.408 416.33C172.452 416.659 171.61 416.885 170.929 416.98C170.222 417.079 169.797 417.02 169.589 416.903Z" fill="#434347"/>
<path fill-rule="evenodd" clip-rule="evenodd" d="M176.886 415.331C177.105 415.118 177.454 415.123 177.667 415.342L186.502 424.431C186.715 424.65 186.71 425 186.491 425.212C186.272 425.425 185.923 425.42 185.71 425.201L176.875 416.112C176.662 415.893 176.667 415.544 176.886 415.331Z" fill="#434347"/>
<path fill-rule="evenodd" clip-rule="evenodd" d="M165.512 413.826C165.592 414.121 165.418 414.424 165.124 414.504L154.775 417.32C154.481 417.4 154.178 417.227 154.098 416.933C154.018 416.638 154.191 416.335 154.485 416.255L164.834 413.438C165.128 413.358 165.431 413.532 165.512 413.826Z" fill="#434347"/>
<path opacity="0.05" d="M427.039 174.546H417.154V184.43H427.039V174.546Z" fill="white"/>
<path opacity="0.05" d="M418.493 307.837L421.431 312.928L424.369 318.02H418.493H412.629L415.556 312.928L418.493 307.837Z" fill="white"/>
<path d="M375.024 127.212L407.936 152.392C408.654 152.944 409.692 152.801 410.233 152.072L415.203 145.335C415.722 144.628 415.589 143.645 414.916 143.104L382.479 117.151C381.75 116.565 380.69 116.72 380.149 117.471L374.715 124.981C374.185 125.677 374.329 126.671 375.024 127.212Z" fill="#2F2F33"/>
<path d="M377.465 126.086L385.439 131.685L390.154 126.064L382.17 119.404L377.465 126.086Z" fill="#FF6D66"/>
<path opacity="0.1" d="M388.443 133.872L396.439 140.211L400.724 134.943L392.673 128.416L388.443 133.872Z" fill="#FAD8B0"/>
<path opacity="0.1" d="M399.123 142.64L407.108 148.239L410.907 143.358L403.353 137.029L399.123 142.64Z" fill="#A0C6F4"/>
<path d="M440.681 91.9915L448.18 155.009C448.345 156.389 449.615 157.372 450.985 157.184L463.685 155.451C465.011 155.274 465.95 154.07 465.828 152.745L459.676 89.4182C459.544 88.0046 458.241 86.9885 456.838 87.1984L442.801 89.2526C441.465 89.4403 440.526 90.6552 440.681 91.9915Z" fill="#29292D"/>
<path d="M444.523 93.4717L446.898 108.204L458.097 107.376L456.871 91.5059L444.523 93.4717Z" fill="#FF6D66"/>
<path opacity="0.1" d="M447.705 113.837L449.284 129.376L459.644 128.448L458.208 112.655L447.705 113.837Z" fill="#91BA83"/>
<path opacity="0.1" d="M449.48 134.931L451.855 149.663L461.276 148.625L460.138 133.572L449.48 134.931Z" fill="#FAD8B0"/>
<path d="M424.313 105.41L445.076 166.451C445.429 167.5 446.578 168.052 447.616 167.676L460.626 162.994C461.631 162.629 462.161 161.547 461.841 160.531L442.337 98.8941C441.995 97.8118 440.824 97.2375 439.764 97.6351L425.495 102.925C424.501 103.29 423.971 104.394 424.313 105.41Z" fill="#2F2F33"/>
<path d="M428.533 106.525L433.923 120.452L444.702 117.304L440.207 102.03L428.533 106.525Z" fill="#A0C6F4"/>
<path opacity="0.1" d="M435.887 125.786L440.658 140.662L450.597 137.603L445.915 122.439L435.887 125.786Z" fill="#F9865F"/>
<path opacity="0.1" d="M442.008 146.052L447.397 159.967L456.398 156.986L452.157 142.507L442.008 146.052Z" fill="#FAD8B0"/>
<path d="M267.818 208.804H162.966C159.62 208.804 156.914 206.088 156.914 202.752V188.572C156.914 185.225 159.631 182.52 162.966 182.52H267.818C271.165 182.52 273.87 185.236 273.87 188.572V202.752C273.882 206.088 271.165 208.804 267.818 208.804Z" fill="#4991FF"/>
<path opacity="0.6" d="M228.534 194.248H171.37C170.266 194.248 169.371 193.353 169.371 192.249C169.371 191.145 170.266 190.25 171.37 190.25H228.534C229.638 190.25 230.533 191.145 230.533 192.249C230.533 193.353 229.638 194.248 228.534 194.248Z" fill="white"/>
<path opacity="0.3" fill-rule="evenodd" clip-rule="evenodd" d="M169.395 199.44C169.395 199.135 169.642 198.888 169.947 198.888H267.123C267.428 198.888 267.675 199.135 267.675 199.44C267.675 199.745 267.428 199.992 267.123 199.992H169.947C169.642 199.992 169.395 199.745 169.395 199.44Z" fill="white"/>
<path opacity="0.05" d="M121.881 134.855L120.224 133.044L114.746 138.047L116.403 139.858C117.098 140.62 118.291 140.675 119.053 139.98L121.759 137.506C122.521 136.81 122.576 135.628 121.881 134.855Z" fill="white"/>
<path opacity="0.05" d="M97.1867 168.307H87.3906V177.252H97.1867V168.307Z" fill="white"/>
<path fill-rule="evenodd" clip-rule="evenodd" d="M87.3899 162C87.6949 162 87.9421 162.247 87.9421 162.552V168.306C87.9421 168.611 87.6949 168.858 87.3899 168.858H81.5366C81.2316 168.858 80.9844 168.611 80.9844 168.306C80.9844 168.001 81.2316 167.754 81.5366 167.754H86.8377V162.552C86.8377 162.247 87.0849 162 87.3899 162Z" fill="#2A1E17"/>
<path opacity="0.05" d="M419.95 67.2861H410.154V76.2318H419.95V67.2861Z" fill="white"/>
<path fill-rule="evenodd" clip-rule="evenodd" d="M410.154 60.9795C410.459 60.9795 410.706 61.2267 410.706 61.5317V67.2856C410.706 67.5906 410.459 67.8378 410.154 67.8378H404.3C403.995 67.8378 403.748 67.5906 403.748 67.2856C403.748 66.9807 403.995 66.7334 404.3 66.7334H409.601V61.5317C409.601 61.2267 409.849 60.9795 410.154 60.9795Z" fill="#2A1E17"/>
<path d="M64.8829 324.69L72.7794 365.365C72.9561 366.26 73.8285 366.834 74.7121 366.646L82.8957 364.912C83.7461 364.736 84.3093 363.907 84.1547 363.046L77.1197 322.095C76.9651 321.178 76.0705 320.582 75.1649 320.78L66.1198 322.79C65.2694 322.989 64.7172 323.829 64.8829 324.69Z" fill="#2F2F33"/>
<path d="M67.457 325.463L69.699 334.95L76.9549 333.879L75.4087 323.597L67.457 325.463Z" fill="#FF6D66"/>
<path opacity="0.1" d="M70.5039 338.584L72.271 348.623L78.9747 347.529L77.285 337.303L70.5039 338.584Z" fill="#FAD8B0"/>
<path opacity="0.1" d="M72.6562 352.234L74.9092 361.721L80.9945 360.584L79.5477 350.843L72.6562 352.234Z" fill="#A0C6F4"/>
<path fill-rule="evenodd" clip-rule="evenodd" d="M27.2993 51.9359C27.3949 51.8959 27.5029 51.8978 27.597 51.9411L48.8347 61.7151C48.9241 61.7563 48.9935 61.8313 49.0274 61.9237C49.0614 62.0161 49.0572 62.1182 49.0158 62.2075L48.0107 64.3722C47.9252 64.5563 47.7074 64.6373 47.5224 64.5537L26.4172 55.0227C26.2408 54.9431 26.1555 54.741 26.2215 54.559L27.0939 52.1514C27.1292 52.054 27.2037 51.9758 27.2993 51.9359ZM27.6531 52.7824L27.0347 54.4888L47.4932 63.7278L48.1874 62.2327L27.6531 52.7824Z" fill="#2A1E17"/>
<path fill-rule="evenodd" clip-rule="evenodd" d="M49.0268 66.2789C49.2171 66.3539 49.3105 66.569 49.2354 66.7593L48.4513 68.7472C48.3763 68.9375 48.1612 69.0309 47.9709 68.9558C47.7806 68.8808 47.6872 68.6657 47.7623 68.4754L48.5464 66.4875C48.6214 66.2972 48.8365 66.2038 49.0268 66.2789Z" fill="#2A1E17"/>
<path fill-rule="evenodd" clip-rule="evenodd" d="M47.2068 67.1568C47.2779 66.965 47.491 66.8671 47.6828 66.9382L49.5602 67.634C49.752 67.7051 49.8499 67.9182 49.7788 68.11C49.7077 68.3018 49.4946 68.3996 49.3028 68.3286L47.4254 67.6328C47.2336 67.5617 47.1357 67.3486 47.2068 67.1568Z" fill="#2A1E17"/>
<path fill-rule="evenodd" clip-rule="evenodd" d="M55.4753 59.2121C55.6653 59.2879 55.7578 59.5034 55.6819 59.6934L54.191 63.4263C54.1151 63.6162 53.8996 63.7087 53.7096 63.6328C53.5197 63.557 53.4272 63.3415 53.5031 63.1515L54.994 59.4186C55.0699 59.2287 55.2854 59.1362 55.4753 59.2121Z" fill="#2A1E17"/>
<path fill-rule="evenodd" clip-rule="evenodd" d="M52.5753 60.623C52.651 60.433 52.8664 60.3403 53.0564 60.4161L56.3255 61.7193C56.5155 61.795 56.6081 62.0104 56.5324 62.2005C56.4566 62.3905 56.2412 62.4831 56.0512 62.4073L52.7821 61.1041C52.5921 61.0284 52.4995 60.813 52.5753 60.623Z" fill="#2A1E17"/>
<path fill-rule="evenodd" clip-rule="evenodd" d="M55.9284 66.148C56.1181 66.2244 56.21 66.4402 56.1336 66.6299L54.1457 71.5666C54.0692 71.7563 53.8535 71.8482 53.6638 71.7718C53.474 71.6954 53.3821 71.4796 53.4585 71.2899L55.4465 66.3532C55.5229 66.1635 55.7386 66.0716 55.9284 66.148Z" fill="#2A1E17"/>
<path fill-rule="evenodd" clip-rule="evenodd" d="M52.0887 68.023C52.1641 67.8328 52.3794 67.7398 52.5695 67.8153L57.1638 69.6375C57.354 69.7129 57.447 69.9282 57.3716 70.1183C57.2961 70.3085 57.0809 70.4015 56.8907 70.3261L52.2964 68.5038C52.1063 68.4284 52.0133 68.2131 52.0887 68.023Z" fill="#2A1E17"/>
<path d="M126.573 242.521C111.697 231.809 97.0747 215.154 103.48 198.058C103.48 198.058 113.74 191.222 129.986 199.77C146.232 208.318 146.232 208.318 146.232 208.318L126.573 242.521Z" fill="#29292D"/>
<path d="M119.828 313.889C113.135 310.719 84.5423 295.843 79.451 270.409C75.0555 248.442 91.8645 218.811 100.28 205.724C99.7389 223.096 117.188 237.796 125.604 243.859C134.13 249.999 140.403 253.003 149.051 256.25L119.828 313.889Z" fill="#2A2B2E"/>
<path d="M99.0109 210.892C100.833 222.433 109.646 234.405 124.644 245.206C132.739 251.037 138.836 254.085 146.754 257.145L119.1 311.691C110.673 307.494 85.736 293.292 81.0975 270.077C77.221 250.794 90.3082 225.205 99.0109 210.892ZM103.495 198.048C103.495 198.048 71.8536 240.799 77.8395 270.729C83.8254 300.658 120.591 316.053 120.591 316.053L151.371 255.344C141.751 251.821 135.5 248.95 126.577 242.522C111.701 231.798 97.0782 215.155 103.495 198.048Z" fill="#2F2F33"/>
<path d="M349.874 243.836L331.607 280.447C331.607 280.447 343.999 285.008 334.313 299.211C334.313 299.211 357.219 308.709 372.205 284.036C387.192 259.364 349.874 243.836 349.874 243.836Z" fill="#29292D"/>
<path opacity="0.3" d="M308.061 355.735C298.817 355.735 289.054 351.958 279.037 344.514L313.218 287.902L333.55 300.702L333.683 300.758C333.871 300.835 338.399 302.679 344.782 302.679C349.918 302.679 356.401 301.475 362.707 297.014L337.725 339.754C337.659 339.82 326.902 355.735 308.061 355.735Z" fill="#434347"/>
<path d="M313.761 290.188L332.536 302.017L332.768 302.171L333.022 302.282C333.22 302.37 338.047 304.336 344.761 304.336C348.682 304.336 353.343 303.673 358.136 301.531L336.335 338.826C335.617 339.864 325.501 354.089 308.051 354.089C299.536 354.089 290.524 350.721 281.236 344.072L313.761 290.188ZM372.195 284.048C363.724 297.985 352.735 301.012 344.772 301.012C338.643 301.012 334.303 299.211 334.303 299.211L312.667 285.583L276.852 344.923C288.845 354.166 299.304 357.38 308.062 357.38C328.074 357.38 339.151 340.571 339.151 340.571L372.195 284.048Z" fill="#2F2F33"/>
<path opacity="0.05" fill-rule="evenodd" clip-rule="evenodd" d="M22.3984 232.407C22.3984 232.102 22.6457 231.854 22.9506 231.854H31.1895C31.4945 231.854 31.7417 232.102 31.7417 232.407C31.7417 232.712 31.4945 232.959 31.1895 232.959H22.9506C22.6457 232.959 22.3984 232.712 22.3984 232.407Z" fill="white"/>
<path opacity="0.05" fill-rule="evenodd" clip-rule="evenodd" d="M481.555 133.264C481.555 132.959 481.802 132.712 482.107 132.712H490.346C490.651 132.712 490.898 132.959 490.898 133.264C490.898 133.569 490.651 133.816 490.346 133.816H482.107C481.802 133.816 481.555 133.569 481.555 133.264Z" fill="white"/>
<path opacity="0.05" fill-rule="evenodd" clip-rule="evenodd" d="M505.852 178.016L497.746 176.559L497.942 175.472L506.048 176.929L505.852 178.016Z" fill="white"/>
<path opacity="0.05" fill-rule="evenodd" clip-rule="evenodd" d="M173.502 381.688C173.502 381.383 173.749 381.136 174.054 381.136H182.304C182.609 381.136 182.856 381.383 182.856 381.688C182.856 381.993 182.609 382.24 182.304 382.24H174.054C173.749 382.24 173.502 381.993 173.502 381.688Z" fill="white"/>
<path opacity="0.05" d="M515.603 281.662C517.109 281.662 518.331 280.441 518.331 278.934C518.331 277.427 517.109 276.206 515.603 276.206C514.096 276.206 512.875 277.427 512.875 278.934C512.875 280.441 514.096 281.662 515.603 281.662Z" fill="white"/>
<path opacity="0.05" d="M2.72788 150.659C4.23444 150.659 5.45576 149.438 5.45576 147.931C5.45576 146.424 4.23444 145.203 2.72788 145.203C1.22131 145.203 0 146.424 0 147.931C0 149.438 1.22131 150.659 2.72788 150.659Z" fill="white"/>
<path d="M454.758 424.355C448.836 423.292 441.52 424.789 435.131 425.365C428.742 424.789 421.425 423.299 415.504 424.355C413.052 429.409 412.666 436.93 414.095 442.37C415.525 447.81 418.959 452.695 423.573 455.858C426.059 457.566 428.851 458.745 431.771 459.497H438.491C441.404 458.751 444.202 457.566 446.689 455.858C451.303 452.695 454.737 447.81 456.167 442.37C457.596 436.936 457.21 429.416 454.758 424.355Z" fill="#4991FF"/>
<path d="M435.138 430.69C446.281 430.69 455.314 428.194 455.314 425.115C455.314 422.035 446.281 419.539 435.138 419.539C423.996 419.539 414.963 422.035 414.963 425.115C414.963 428.194 423.996 430.69 435.138 430.69Z" fill="#121316"/>
<path d="M435.135 431.028C425.048 431.028 414.621 428.82 414.621 425.114C414.621 421.415 425.054 419.206 435.135 419.206C445.223 419.206 455.65 421.415 455.65 425.114C455.65 428.82 445.216 431.028 435.135 431.028ZM435.135 419.884C423.266 419.884 415.299 422.587 415.299 425.114C415.299 427.641 423.273 430.351 435.135 430.351C446.998 430.351 454.972 427.641 454.972 425.114C454.972 422.587 447.005 419.884 435.135 419.884Z" fill="#4991FF"/>
<path d="M424.239 426.868C424.239 426.868 397.132 410.347 401.446 394.338C405.759 378.329 417.246 379.469 420.831 388.518C425.307 399.818 431.325 391.064 428.555 374.864C424.724 352.462 436.554 348.471 445.179 352.462C453.804 356.453 438.444 376.642 448.734 377.987C453.936 378.667 457.023 359.266 464.872 361.368C471.565 363.166 473.002 365.012 470.336 373.98C467.67 382.948 466.282 406.475 455.194 417.064C444.107 427.654 440.871 426.868 440.871 426.868H424.239Z" fill="url(#paint0_linear_12059_55119)"/>
<path d="M439.255 351.528C438.752 356.81 438.18 362.081 437.584 367.35C437.014 372.405 436.423 377.456 435.869 382.515C435.339 387.351 434.843 392.192 434.445 397.045C434.067 401.676 433.778 406.319 433.654 410.967C433.536 415.394 433.567 419.828 433.827 424.25C433.859 424.8 433.895 425.35 433.935 425.899C433.972 426.413 434.682 426.422 434.645 425.899C434.341 421.485 434.235 417.057 434.327 412.63C434.41 408.007 434.666 403.387 435.019 398.78C435.388 393.952 435.866 389.136 436.383 384.325C436.923 379.294 437.509 374.268 438.081 369.241C438.675 364.022 439.254 358.802 439.768 353.573C439.836 352.893 439.901 352.212 439.965 351.531C440.015 351.017 439.303 351.02 439.255 351.531V351.528Z" fill="#00FFA3"/>
<path d="M406.4 386.219C408.299 388.383 410.076 390.649 411.725 393.007C413.518 395.543 415.204 398.153 416.819 400.803C418.486 403.531 420.074 406.302 421.617 409.098C423.114 411.809 424.572 414.542 425.992 417.295C427.371 419.956 428.686 422.658 430.083 425.304C430.286 425.69 430.496 426.072 430.713 426.45C430.968 426.894 431.663 426.494 431.406 426.049C430.586 424.625 429.878 423.14 429.136 421.677C428.483 420.391 427.826 419.106 427.166 417.823C425.757 415.092 424.319 412.376 422.85 409.675C421.319 406.875 419.743 404.099 418.097 401.364C416.473 398.664 414.782 396.001 412.985 393.413C411.329 391.001 409.55 388.675 407.654 386.442C407.428 386.178 407.2 385.917 406.97 385.658C406.628 385.272 406.061 385.836 406.402 386.22L406.4 386.219Z" fill="#00FFA3"/>
<path d="M467.911 363.378C465.419 367.149 463.289 371.151 461.272 375.182C459.159 379.408 457.191 383.701 455.236 388C453.363 392.121 451.425 396.214 449.569 400.343C447.285 405.421 445.21 410.593 443.461 415.875C442.81 417.845 442.27 419.839 441.6 421.795C441.142 423.133 440.681 424.474 440.155 425.787L440.105 425.912C440.062 426.015 440.111 425.883 440.095 425.937C440.047 426.09 439.964 426.015 440.177 425.909L440.491 425.868L440.771 426.147C440.685 425.94 440.504 425.805 440.274 425.865C440.083 425.915 439.909 426.157 439.992 426.356C440.145 426.721 440.569 426.738 440.763 426.407C440.848 426.24 440.92 426.067 440.979 425.889C441.225 425.26 441.454 424.623 441.683 423.988C442.214 422.512 442.701 421.031 443.153 419.532C444.795 414.064 446.808 408.708 449.07 403.468C450.964 399.076 453.046 394.762 455.025 390.409C457.005 386.057 458.971 381.704 461.069 377.414C463.123 373.212 465.279 369.04 467.777 365.076C468.05 364.643 468.329 364.212 468.614 363.784C468.898 363.353 468.195 362.955 467.917 363.381L467.911 363.378Z" fill="#00FFA3"/>
<g opacity="0.15">
<path opacity="0.2" d="M218.944 68.5096C213.598 68.3749 208.212 68.3172 202.789 68.3557C160.264 68.7019 120.875 74.8757 88.0053 85.2232C55.1743 93.9935 53.1741 59.6431 64.637 38.4097C72.7919 23.2925 83.8509 19.1574 88.0053 17.5995C120.875 7.25208 160.264 1.07824 202.789 0.732048C208.212 0.693581 213.617 0.732048 218.944 0.885918C257.526 3.73241 267.643 40.7946 249.602 58.0852C244.563 62.9127 235.158 68.6442 218.944 68.5096Z" fill="#4991FF"/>
<path d="M206.503 -0.000160217C205.272 -0.000160217 204.022 -0.000152588 202.791 0.0190811C161.613 0.365273 121.858 6.19292 87.7961 16.925C83.5263 18.5213 72.2942 22.7334 64.0047 38.0814C57.1577 50.7561 54.3689 69.9123 62.6969 80.452C66.3512 85.0872 73.7559 89.7993 88.2 85.9334C122.146 75.2398 161.767 69.4314 202.81 69.0852C208.195 69.0468 213.619 69.0852 218.947 69.2391H218.966C235.43 69.2968 245.008 63.5268 250.124 58.6224C258.567 50.5252 261.26 37.6583 256.99 25.8299C251.701 11.1358 237.507 1.53848 219.024 0.192169C214.869 0.0575333 210.677 -0.000160217 206.503 -0.000160217ZM78.3526 85.895C72.1019 85.895 67.159 83.7601 63.8316 79.548C55.8884 69.5084 58.6579 51.0253 65.2933 38.7546C73.3328 23.8874 84.1803 19.81 88.2769 18.2713C122.166 7.61616 161.786 1.78852 202.81 1.44233C208.215 1.40386 213.638 1.44232 218.947 1.59619C236.814 2.92328 250.547 12.1359 255.624 26.2915C259.683 37.6006 257.144 49.8713 249.124 57.5646C244.238 62.2382 235.16 67.7966 219.505 67.7966C219.331 67.7966 219.158 67.7966 218.966 67.7966C213.619 67.6427 208.176 67.6043 202.791 67.6427C161.613 67.9697 121.858 73.8166 87.7961 84.5487C84.3918 85.4526 81.2376 85.895 78.3526 85.895Z" fill="#4991FF"/>
</g>
<g opacity="0.05">
<path d="M201.635 34.156L114.169 34.0263C113.645 34.0263 113.216 33.4924 113.221 32.8388C113.221 32.1851 113.65 31.6562 114.174 31.6562L201.64 31.786C202.163 31.786 202.588 32.3199 202.588 32.9735C202.588 33.6271 202.158 34.156 201.635 34.156Z" fill="white"/>
<path d="M176.234 48.2119L113.876 48.1171C113.502 48.1171 113.197 47.5882 113.197 46.9296C113.197 46.276 113.502 45.7471 113.876 45.7471L176.234 45.8419C176.609 45.8419 176.913 46.3708 176.913 47.0294C176.913 47.683 176.609 48.2119 176.234 48.2119Z" fill="white"/>
<path d="M149.552 40.9034L114.157 40.8485C113.633 40.8485 113.209 40.3146 113.209 39.661C113.209 39.0074 113.638 38.4785 114.162 38.4785L149.557 38.5334C150.081 38.5334 150.505 39.0673 150.505 39.7209C150.505 40.3745 150.076 40.9084 149.552 40.9034Z" fill="white"/>
<path d="M166.147 40.9279L155.639 40.913C155.116 40.913 154.691 40.3791 154.691 39.7255C154.691 39.0719 155.121 38.543 155.644 38.543L166.152 38.5579C166.676 38.5579 167.1 39.0918 167.1 39.7454C167.1 40.3991 166.671 40.9329 166.147 40.9279Z" fill="white"/>
</g>
<defs>
<linearGradient id="paint0_linear_12059_55119" x1="436.289" y1="351.098" x2="436.289" y2="426.881" gradientUnits="userSpaceOnUse">
<stop stop-color="#00FFA3"/>
<stop offset="1" stop-color="#00FFA3" stop-opacity="0"/>
</linearGradient>
</defs>
</svg>
